<?xml version="1.0" encoding="utf-8"?>
<svg version="1.1" id="Layer_1" xmlns="http://www.w3.org/2000/svg" xmlns:xlink="http://www.w3.org/1999/xlink" x="0px" y="0px"
	 viewBox="0 0 1363.175 1703.173" enable-background="new 0 0 1363.175 1703.173" xml:space="preserve">
<path d="M1318.656,157.283c-19.224-14.039-142.045-29.255-205.037-68.87c-120.077-75.526-250.97-21-304.599,73.14
	c-8.567,15.039-14.408,31.604-22.284,47.072c-8.94,17.557-13.01,36.807-20.368,54.879c-6.798,16.698-5.777,26.045-8.269,32.421
	c-29.172,74.643-24.002,110.833-76.561,167.509c-30.898,33.318-79.912,92.084-100.659,114.246
	c-62.842,67.126-107.082,161.797-143.188,206.68c-18.083,22.478-75.827,123.84-90.609,166.739
	c-11.469,33.286-20.78,70.184-122.131,139.664c-3.447,2.363-2.711,6.577-5.916,8.826c-65.124,45.701-2.695,3.1-115.134,80.114
	c-1.133,0.776-3.66,1.512-2.761,3.008c3.493,5.808-1.971,8.078-4.355,11.131c-13.145,16.833-46.097,12.644-54.546,44.205
	c-2.771,10.351,0.372,16.573,11.343,17.116c15.139,0.75,30.484,1.779,45.442-2.031c102.81-26.188,72.06-22,101.14-43.032
	c10.227-7.397,23.381-7.107,34.219-14.072c11.052-7.102,25.381-8.251,36.624-16.063c9.38-6.517,19.175-12.377,29.027-18.19
	c27.512-16.234,20.255-28.073,45.394-33.165c15.886-3.218,31.961-5.448,47.56-10.113c3.197-0.956,6.681-3.038,9.929-1.499
	c23.549,11.166,43.959-6.605,45.182,6.12c0.607,6.316,2.83,13.245,10.2,14.214c8.426,1.108,16.993,0.687,25.099-3.427
	c31.805-16.143,41.919-20.714,47.748-7.159c6.112,14.213,17.888,9.101,21.438,10.855c-2.559,4.325-1.082,6.955,3.584,7.851
	c30.827,5.919,18.587-6.198,16.068,61.851c-0.746,20.16,3.279,38.729,14.262,56.064c12.034,18.993,10.986,25.545,18.61,65.266
	c17.644,91.907,40.44,151.767,23.987,161.694c-3.425,2.066,1.317,16.878-17.067,4.948c-5.52-3.582-8.324-14.609-11.873-16.691
	c-14.493-8.502-35.983,14.444-15.06,36.091c18.221,18.852,63.043,20.461,64.834,52.836c1.209,21.86,16.563,42.251,37.735,48.301
	c10.149,2.9,16.449,11.896,26.44,14.744c1.391,0.396,3.152,2.505,3.426,4.939c0.876,7.784,8.704,12.733,14.317,4.953
	c2.639-3.657,3.129-8.376,4.327-12.724c6.236-22.627,23.244,3.209,36.718,4.787c0.194,0.023,4.978,6.741,6.827,7.731
	c3.462,1.854,9.906,1.353,13.773,2.014c26.998,4.62,65.546,21.399,36.977-7.737c-8.543-8.712-18.973-15.589-30.394-19.9
	c-2.204-0.832-4.547-1.64-6.103-3.408c-1.878-2.134-1.565-5.388-0.179-7.558c8.667,0.689,26.354,8.02,36.646-3.875
	c5.16-5.965,2.388-5.752,11.561-8.932c-1.008-2.427-2.951-3.693-5.224-5.308c-22.439-15.927-54.096-8.182-104.623-26.658
	c-48.885-17.875-37.19-20.529-46.017-29.597c-5.104-5.242-7.841-9.536-15.716-6.023c-8.411,3.753-1.727-13.78-0.993-15.748
	c5.753-15.42,5.628-7.165-13.892-75.755c-0.136,1.253-0.271,2.505-0.407,3.758c-17.081-43.621-11.224-72.768-12.469-84.679
	c-0.842-8.053-4.653-15.524-3.892-23.778c1.412-15.312-0.682-30.381-2.66-45.469c-0.306-2.333-1.009-4.591,0.038-6.904
	c7.258-16.03,7.172-33.479,10.002-50.393c2.126-12.703,5.982-25.11,8.891-37.691c1.555-6.725,8.595-10.279,9.342-17.665
	c0.646-6.388,0.513-13.942,9.37-15.884c0.759-0.167,1.918-1.683,1.774-2.318c-2.266-9.975,8.906-13.317,10.74-22.46
	c1.779-8.869,12.027-15.925,13.741-26.481c0.391-2.411,2.517-2.389,4.217-2.807c13.975-3.441,27.485-8.47,41.453-12.026
	c5.227-1.331,10.626,0.132,15.477-2.331c1.742-0.885,3.155-3.865,5.286-2.139c4.109,3.328-7.326,10.861-3.407,14.546
	c1.583,1.488,3.821,1.027,4.984-0.264c4.686-5.206,11.818-8.015,14.596-15.119c0.838-2.143,2.102-5.063,4.417-5.205
	c7.708-0.472,13.679-5.917,21.325-6.66c8.592-0.835,10.183-0.238,6.806,7.7c-7.513,17.661-5.937,35.819-5.258,54.072
	c0.453,12.148,14.835,40.584,20.296,51.76c9.062,18.545,14.323,10.349,21.714,22.553c23.553,38.898,35.999,85.477,52.428,127.721
	c12.428,32.473,26.875,60.973,22.581,96.557c-2.047,16.959-15.682,4.747-69.934-27.09c-5.531-3.245-9.181-6.085-16.595-5.439
	c-11.581,1.009-18.28,7.189-23.823,15.594c-3.876,5.879,0.004,11.9,3.038,16.728c2.408,3.832,6.702,2.054,9.273-1.183
	c2.597-3.269,4.415-17.447,14.707-10.561c12.535,8.387,23.642,21.32,38.211,26.014c5.474,1.764,11.407,2.636,16.097,5.965
	c8.535,6.057,22.893,17.094,22.34,28.128c-0.891,17.693,5.628,34.04,9.034,50.944c2.317,11.492,14.442,13.459,18.625,10.746
	c4.895-3.175,3.059-12.094,4.936-17.39c0.93-2.624,10.484-22.754-2.744-27.454c5.807-2.714,13.985-3.993,18.288,2.404
	c3.283,4.882,7.541,5.696,12.464,6.645c9.237,1.782,5.544,6.373,9.481,11.693c18.216,24.613,46.332,13.939,81.963,45.515
	c12.393,10.983,20.187,13.318,16.879-5.758c-1.885-10.869-8.886-21.795-8.411-30.995c0.428-8.312,8.142-18.694,5.17-27.354
	c-1.437-4.152-6.221-6.791-10.517-5.894c-8.216,1.715-6.949,9.833-16.51,9.638c-8.068-0.165-14.404-8.389-22.49-9.446
	c-9.306-1.208-15.089-10.265-24.998-11.705c-4.038-0.587-11.829-7.21-11.48-9.185c1.278-7.219-11.148-17.235-14.195-24.323
	c-83.224-193.613-68.1-173.2-109.101-259.491c-0.918-1.932-2.337-4.2-0.772-5.887c6.007-6.477,4.079-15.246,6.324-22.736
	c3.793-12.655,5.372-26.109,8.836-39.002c13.167-49.019,16.333-35.725,33.172-66.53c26.08-47.714,165.696-128.086,202.195-293.697
	c7.521-34.126,49.521-130.797,21.324-223.14c-5.702-18.674-36.596-85.838-50.108-104.355c-24.108-33.04-21.902-46.671-29.289-70.074
	c-26.531-84.055,91.589-165.354,103.955-168.528c30.863-7.923,76.859-22.509,124.616-28.037c5.64-0.653,24.655-0.884,24.995-5.235
	C1322.058,157.358,1319.736,158.071,1318.656,157.283z"/>
</svg>
